PathFileType	4	(X/Y/Z)	C:\Users\WrightLab\Desktop\Jo\P1_boxCal16.trc
DataRate	CameraRate	NumFrames	NumMarkers	Units	OrigDataRate	OrigDataStartFrame	OrigNumFrames
100.00	100.00	      18	19	mm	100.00	430	      1146
Frame#	Time	Headset_Front			Headset_Back			Headset_Left			Headset_Right			Left_Shoulder			Right_Shoulder			Sternum			C7			Left Elbow			Right Elbow			Left Wrist			Right Wrist			Left ASIS			Right ASIS			S2			Left Knee			Right Knee			Left Ankle			Right Ankle			
		X1	Y1	Z1	X2	Y2	Z2	X3	Y3	Z3	X4	Y4	Z4	X5	Y5	Z5	X6	Y6	Z6	X7	Y7	Z7	X8	Y8	Z8	X9	Y9	Z9	X10	Y10	Z10	X11	Y11	Z11	X12	Y12	Z12	X13	Y13	Z13	X14	Y14	Z14	X15	Y15	Z15	X16	Y16	Z16	X17	Y17	Z17	X18	Y18	Z18	X19	Y19	Z19	

430	4.290							-150.21121	1278.92566	1747.80737	35.56893	1478.07117	1952.98730	304.23120	987.93475	1900.93005	101.50357	503.37283	2069.47168							189.90112	1296.41418	1929.11646							-151.62454	1395.93079	1997.69922	-58.63069	1188.54114	1947.90845				14.86356	909.97308	2023.36743	136.36546	907.37305	1713.60400	366.30295	810.53723	1988.24341	-142.37889	896.67688	1895.58606				
431	4.300							-151.18410	1279.84570	1754.62793	30.56586	1478.64954	1963.19446	301.24060	988.23199	1915.75317	97.23254	505.85727	2081.27563							185.98978	1296.32141	1941.37976							-156.81821	1397.32776	2004.46521	-62.78905	1189.73071	1956.58655				8.85923	910.26563	2033.77234	133.72438	908.53131	1725.93054	362.10153	811.96210	2004.60474	-146.15347	897.04163	1903.80725				
432	4.310							-152.76877	1281.13879	1762.69690	25.84354	1480.09338	1973.60815	296.32346	988.55188	1928.85510	92.55398	507.56366	2090.90649							181.98402	1297.29260	1953.75403							-162.63843	1399.15869	2012.20642	-67.63062	1191.07349	1965.77771				2.66992	911.18311	2044.51636	133.36060	909.09589	1738.98755	357.15274	812.18384	2018.64404	-150.28226	898.97247	1912.16199				
433	4.320							-154.37791	1282.80750	1770.40869	20.51510	1481.69421	1984.69910	291.94800	989.16870	1942.87378	87.32953	511.65955	2102.27832							178.18364	1297.93958	1966.17554							-168.17615	1399.65222	2018.27539	-72.43223	1192.71643	1974.89990				-3.21377	912.52448	2055.34692				351.10159	812.82428	2034.15125	-154.02333	900.11694	1920.30542				
434	4.330							-155.90993	1285.02075	1776.99133	15.34492	1483.13855	1995.06689	288.16000	989.67914	1958.07373	82.96008	514.81323	2112.07813							172.18721	1296.14893	1974.40918							-173.37822	1401.14075	2025.05981	-76.82861	1194.26038	1982.69104				-8.37960	914.68292	2064.93799				345.69830	814.11884	2049.48584	-157.61226	902.68848	1929.07568	130.25432	913.82672	1761.61194	
435	4.340							-158.11543	1287.27820	1785.16589	10.78011	1484.35852	2004.29163	282.73370	992.05249	1972.82043	78.49993	516.78351	2121.11011							167.26495	1298.38501	1987.54810							-179.13817	1403.44165	2031.99915	-81.90200	1196.30127	1991.15393				-13.50475	915.92230	2073.67114				338.91037	816.08551	2065.81982	-160.59851	903.72998	1936.24463	127.27569	916.37720	1770.65710	
436	4.350							-159.85710	1289.29358	1791.69995	5.47907	1485.37744	2014.02454	277.58691	992.93799	1985.84363	75.59361	519.13110	2131.10376							162.30403	1299.20740	1997.81641							-184.91347	1404.86340	2038.55591	-86.91281	1197.91589	1999.56433				-18.68649	918.35480	2083.42114				331.95828	817.12439	2080.32666	-164.31639	906.66528	1945.09521				
437	4.360							-162.36996	1291.28320	1798.29492	0.94268	1486.37842	2023.19482	272.53882	993.86328	1998.78296	72.60143	519.02277	2139.86011							156.63853	1300.94604	2009.45764							-190.51553	1406.64709	2045.49402	-91.59621	1199.26501	2006.78271				-23.65079	919.57422	2091.55396				324.56015	819.33746	2097.00171	-167.36104	907.72473	1951.45667	123.36465	919.31238	1794.54504	
438	4.370							-164.24004	1293.29102	1804.74438	-4.16068	1487.40295	2032.54285				70.18804	519.58557	2149.07642							151.07889	1302.85608	2021.70715							-195.99153	1408.09607	2051.56226	-96.63715	1200.70093	2014.24927				-28.50551	921.69501	2099.90649				316.42627	819.67505	2112.93848	-171.16179	909.65070	1958.66187	119.97285	922.14642	1799.98730	
439	4.380							-166.70264	1294.78418	1812.29041	-9.62053	1488.57776	2042.50757				68.43199	518.14557	2156.03589							145.18117	1304.47534	2032.16443							-201.29088	1410.06738	2057.51001	-101.62189	1201.79175	2021.54346				-33.71824	922.83331	2107.89697				307.83282	822.45325	2129.61499	-174.23238	910.54779	1965.06958	117.97281	923.19788	1812.09241	
440	4.390							-168.57852	1296.29358	1818.67664	-14.84118	1489.41357	2050.88232				67.02164	516.82983	2163.80762							139.24251	1305.93164	2042.78540							-207.21260	1411.05334	2064.52905	-107.46574	1202.72034	2027.78052				-38.83414	924.06061	2115.55103				299.92484	824.98126	2145.46606	-178.03763	911.87512	1971.19958	115.09907	924.29034	1820.95984	
441	4.400							-171.13603	1297.64978	1824.07556	-19.55525	1490.03674	2059.04736				66.19244	515.21527	2169.15601							132.98518	1307.16614	2053.48340							-212.70157	1412.02686	2069.87842	-112.83391	1203.54944	2034.10645				-43.94498	924.92834	2122.65332				289.57855	825.90643	2161.70166	-181.34856	912.72943	1976.72449	112.80453	924.68317	1828.59692	
442	4.410							-173.08160	1298.98340	1828.76050	-25.16599	1490.63196	2067.02661	-0.63165	1558.62317	1912.83582	65.20927	513.32123	2173.46753							127.26511	1308.98999	2063.82227							-218.44791	1413.39624	2075.89111	-117.87354	1204.08093	2039.39575				-49.03369	925.11206	2129.15356				280.40353	827.14630	2177.90161	-185.60950	913.95306	1982.81848	111.06683	926.38715	1841.51709	
443	4.420							-175.56313	1299.95569	1833.52856	-30.32951	1491.10156	2074.71558	-4.22791	1560.20789	1922.16968	65.45636	511.17548	2177.28882							120.72388	1310.40088	2074.54590							-224.08990	1414.28821	2081.29688	-123.76663	1204.75232	2044.21350				-54.03644	926.39056	2136.43970				270.71509	829.52588	2194.42554	-189.62285	914.32495	1986.05774	108.16604	929.42206	1847.78015	
444	4.430							-177.50569	1301.22681	1837.83032	-36.71103	1492.34949	2083.74121	-7.86595	1561.49377	1929.48486	65.45161	509.36978	2180.08740							114.01204	1312.45447	2085.39038							-229.65985	1414.95056	2086.38892	-129.33377	1205.99646	2050.82227				-59.67502	927.19519	2143.03564				260.79141	830.66095	2211.07690	-194.14786	915.78516	1991.97278	107.13019	930.52362	1856.03125	
445	4.440							-179.66400	1302.15247	1841.63879	-42.19164	1492.70654	2090.21094	-12.36948	1562.91309	1938.05042	64.89005	507.80093	2181.50049							107.82983	1313.59949	2094.30127							-235.53667	1415.64319	2091.90210	-135.01016	1206.48938	2054.61572				-65.50409	927.96527	2148.45288				250.11769	833.84210	2228.00586	-197.66083	916.58868	1996.59204	104.64391	932.65741	1864.60303	
446	4.450							-181.64394	1303.13171	1845.70557	-47.94198	1493.81982	2097.83618	-16.98234	1565.02551	1945.69397	64.03597	507.68082	2182.75293							101.39984	1315.36719	2103.55664							-241.14775	1416.02661	2095.85840	-140.21188	1207.43359	2060.77222				-70.93821	929.04547	2154.59814				239.64229	835.49329	2245.28662	-202.85194	917.38110	2000.51770	103.27996	935.45422	1873.16321	
447	4.460							-183.56509	1304.32166	1850.04224	-54.45955	1494.96716	2105.06177	-21.49539	1566.04407	1953.03210	61.86895	508.04517	2184.57593							94.98435	1316.35547	2112.09912							-246.75346	1416.80652	2100.00928	-146.48845	1208.39099	2064.44263				-76.46511	929.93024	2159.82129				228.26810	837.58374	2260.16919	-206.60091	918.07330	2004.15698	100.84771	936.00873	1884.52820	
